<?xml version="1.0" encoding="utf-8"?>
<!-- Generator: Adobe Illustrator 19.2.0, SVG Export Plug-In . SVG Version: 6.00 Build 0)  -->
<svg version="1.1" xmlns="http://www.w3.org/2000/svg" xmlns:xlink="http://www.w3.org/1999/xlink" x="0px" y="0px"
	 viewBox="0 0 125 40" enable-background="new 0 0 125 40" xml:space="preserve">
<g id="bg" display="none">
	<rect display="inline" fill="#FFFFFF" width="125" height="40"/>
</g>
<g id="icons">
	<g>
		<defs>
			<path id="SVGID_29_" d="M60.055,16.352v5.125c0,1.459-0.722,2.359-1.879,2.359c-1.161,0-1.866-0.926-1.866-2.386v-5.098h-1.827
				v5.125c0,2.658,1.49,4.144,3.693,4.144c2.319,0,3.702-1.525,3.702-4.171v-5.098H60.055z M69.753,16.352v3.861
				c0,0.507,0.025,1.653,0.025,1.993c-0.118-0.235-0.416-0.692-0.637-1.028l-3.236-4.825h-1.746v9.126h1.8v-4.015
				c0-0.51-0.027-1.656-0.027-1.996c0.119,0.234,0.418,0.692,0.638,1.032l3.35,4.979h1.63v-9.126H69.753z M75.723,18.124h0.965
				c1.928,0,2.726,0.925,2.726,2.793c0,1.667-0.874,2.79-2.791,2.79h-0.899V18.124z M73.898,16.352v9.126h2.724
				c2.346,0,4.666-1.354,4.666-4.562c0-3.339-1.926-4.564-4.536-4.564H73.898z M91.88,16.352v9.126h5.485v-1.801h-3.659v-7.325
				H91.88z M113.501,16.352v5.125c0,1.459-0.716,2.359-1.875,2.359c-1.163,0-1.866-0.926-1.866-2.386v-5.098h-1.825v5.125
				c0,2.658,1.485,4.144,3.691,4.144c2.322,0,3.702-1.525,3.702-4.171v-5.098H113.501z M119.432,18.124h0.969
				c1.926,0,2.722,0.925,2.722,2.793c0,1.667-0.875,2.79-2.788,2.79h-0.903V18.124z M117.607,16.352v9.126h2.727
				c2.346,0,4.665-1.354,4.665-4.562c0-3.339-1.929-4.564-4.537-4.564H117.607z M36.596,18.881c0,1.799,1.177,2.333,2.856,2.725
				c1.721,0.392,2.035,0.652,2.035,1.239c0,0.692-0.509,0.991-1.591,0.991c-0.875,0-1.696-0.3-2.335-1.045l-1.317,1.172
				c0.692,1.022,2.023,1.658,3.547,1.658c2.492,0,3.585-1.173,3.585-2.909c0-1.979-1.603-2.473-3.052-2.813
				c-1.445-0.342-1.837-0.523-1.837-1.096c0-0.402,0.326-0.824,1.304-0.824c0.836,0,1.488,0.343,2.074,0.94l1.316-1.275
				c-0.861-0.898-1.902-1.432-3.325-1.432C38.058,16.211,36.596,17.225,36.596,18.881 M46.637,20.916
				c0-1.631,0.613-2.895,2.085-2.895c1.474,0,2.087,1.264,2.087,2.895c0,1.628-0.612,2.892-2.087,2.892
				C47.25,23.809,46.637,22.544,46.637,20.916 M44.761,20.916c0,2.777,1.473,4.704,3.962,4.704c2.489,0,3.964-1.927,3.964-4.704
				c0-2.78-1.474-4.706-3.964-4.706C46.234,16.211,44.761,18.137,44.761,20.916 M82.905,20.916c0,2.879,1.604,4.704,3.989,4.704
				c1.659,0,2.754-0.767,3.38-2.059l-1.539-0.912c-0.482,0.806-0.966,1.159-1.787,1.159c-1.369,0-2.166-1.252-2.166-2.892
				c0-1.696,0.784-2.895,2.153-2.895c0.818,0,1.342,0.362,1.67,0.989l1.694-0.781c-0.575-1.185-1.619-2.019-3.34-2.019
				C84.575,16.211,82.905,18.137,82.905,20.916 M100.087,20.916c0-1.631,0.612-2.895,2.086-2.895c1.471,0,2.085,1.264,2.085,2.895
				c0,1.628-0.614,2.892-2.085,2.892C100.699,23.809,100.087,22.544,100.087,20.916 M98.211,20.916c0,2.777,1.472,4.704,3.962,4.704
				c2.49,0,3.962-1.927,3.962-4.704c0-2.78-1.472-4.706-3.962-4.706C99.683,16.211,98.211,18.137,98.211,20.916 M0.239,21.52
				L0,23.333l0.239,1.782c0.009,0.076,0.063,0.129,0.131,0.129c0.066,0,0.12-0.053,0.131-0.128l0.283-1.783l-0.283-1.814
				c-0.011-0.074-0.065-0.126-0.131-0.126C0.302,21.392,0.248,21.444,0.239,21.52 M1.441,20.401L1.12,23.333l0.321,2.869
				c0.01,0.075,0.067,0.132,0.136,0.132c0.068,0,0.124-0.054,0.136-0.132l0.364-2.869l-0.364-2.932
				c-0.012-0.078-0.068-0.132-0.136-0.132C1.508,20.268,1.451,20.323,1.441,20.401 M5.238,20.018l-0.271,3.316l0.271,3.488
				c0.008,0.122,0.101,0.216,0.219,0.216c0.116,0,0.211-0.094,0.22-0.216l0.309-3.489l-0.309-3.318
				c-0.009-0.121-0.102-0.214-0.22-0.214C5.339,19.802,5.246,19.894,5.238,20.018 M2.696,19.853l-0.305,3.48l0.305,3.354
				c0.009,0.092,0.078,0.16,0.164,0.16c0.085,0,0.153-0.068,0.163-0.16l0.347-3.354l-0.346-3.48c-0.011-0.092-0.079-0.16-0.164-0.16
				C2.774,19.693,2.705,19.761,2.696,19.853 M3.962,19.759l-0.289,3.575l0.289,3.459C3.97,26.9,4.052,26.98,4.153,26.98
				c0.1,0,0.182-0.08,0.192-0.187l0.327-3.459l-0.327-3.576c-0.01-0.107-0.092-0.188-0.192-0.188
				C4.052,19.57,3.97,19.651,3.962,19.759 M6.525,17.94L6.27,23.336l0.255,3.487c0.007,0.136,0.116,0.244,0.247,0.244
				c0.131,0,0.24-0.108,0.248-0.244v0.001l0.289-3.488L7.02,17.94c-0.008-0.137-0.117-0.245-0.248-0.245
				C6.64,17.695,6.532,17.803,6.525,17.94 M7.822,16.706l-0.239,6.63l0.239,3.466c0.007,0.151,0.127,0.271,0.275,0.271
				c0.147,0,0.267-0.12,0.275-0.272l0.27-3.465l-0.27-6.63c-0.008-0.153-0.128-0.273-0.275-0.273
				C7.949,16.433,7.829,16.553,7.822,16.706 M13.116,16.367l-0.173,6.971l0.173,3.355c0.004,0.214,0.174,0.383,0.387,0.383
				c0.212,0,0.381-0.169,0.386-0.385v0.003l0.194-3.354l-0.194-6.973c-0.005-0.216-0.174-0.385-0.386-0.385
				C13.29,15.981,13.12,16.151,13.116,16.367 M9.13,16.154l-0.223,7.183l0.223,3.43c0.005,0.167,0.139,0.299,0.303,0.299
				c0.163,0,0.296-0.131,0.303-0.3l0.251-3.429l-0.251-7.184c-0.007-0.169-0.14-0.3-0.303-0.3
				C9.268,15.853,9.135,15.984,9.13,16.154 M11.776,16.102l-0.189,7.236l0.19,3.376c0.004,0.198,0.162,0.356,0.359,0.356
				c0.196,0,0.353-0.158,0.359-0.358v0.002l0.213-3.376l-0.213-7.236c-0.005-0.2-0.163-0.357-0.359-0.357
				C11.939,15.745,11.781,15.902,11.776,16.102 M10.448,15.912l-0.205,7.425l0.206,3.409c0.004,0.182,0.15,0.327,0.331,0.327
				c0.18,0,0.325-0.145,0.331-0.328v0.001v-0.001v-0.001l0.232-3.406l-0.232-7.426c-0.005-0.185-0.151-0.328-0.331-0.328
				C10.598,15.584,10.452,15.727,10.448,15.912 M14.465,15.043l-0.156,8.294c0,0.005,0.156,3.335,0.156,3.335
				c0.004,0.225,0.19,0.411,0.414,0.411c0.225,0,0.41-0.185,0.415-0.412v0.002V26.67l0.174-3.33l-0.174-8.297
				c-0.004-0.227-0.19-0.413-0.415-0.413C14.655,14.63,14.469,14.815,14.465,15.043 M15.809,14.291l-0.181,9.049l0.181,3.285
				c0.003,0.24,0.202,0.437,0.443,0.437c0.241,0,0.439-0.197,0.442-0.441v0.004l0.197-3.285l-0.197-9.049
				c-0.003-0.242-0.202-0.441-0.442-0.441C16.011,13.849,15.812,14.048,15.809,14.291 M17.459,13.389
				c-0.303,0.117-0.384,0.238-0.386,0.472V26.61c0.003,0.246,0.193,0.451,0.433,0.475c0.01,0,11.063,0.007,11.135,0.007
				c2.22,0,4.017-1.8,4.017-4.018c0-2.219-1.797-4.017-4.017-4.017c-0.55,0-1.075,0.111-1.553,0.311
				c-0.32-3.619-3.355-6.46-7.059-6.46C19.123,12.908,18.24,13.087,17.459,13.389"/>
		</defs>
		<clipPath id="SVGID_1_">
			<use xlink:href="#SVGID_29_"  overflow="visible"/>
		</clipPath>
		
			<linearGradient id="SVGID_2_" gradientUnits="userSpaceOnUse" x1="67.3812" y1="286.7615" x2="68.5578" y2="286.7615" gradientTransform="matrix(0 53.0063 53.0063 0 -15137.6904 -3594.7388)">
			<stop  offset="0" style="stop-color:#F8A01D"/>
			<stop  offset="0.7128" style="stop-color:#F26E23"/>
			<stop  offset="1" style="stop-color:#EF5826"/>
		</linearGradient>
		<rect y="-0.242" clip-path="url(#SVGID_1_)" fill="url(#SVGID_2_)" width="124.949" height="39.528"/>
	</g>
</g>
</svg>
