<?xml version="1.0" encoding="utf-8"?>
<!-- Generator: Adobe Illustrator 21.1.0, SVG Export Plug-In . SVG Version: 6.00 Build 0)  -->
<svg version="1.1" xmlns="http://www.w3.org/2000/svg" xmlns:xlink="http://www.w3.org/1999/xlink" x="0px" y="0px"
	 viewBox="0 0 125 40" enable-background="new 0 0 125 40" xml:space="preserve">
<g id="bg" display="none">
	<rect display="inline" fill="#FFFFFF" width="125" height="40"/>
</g>
<g id="icons">
	<g>
		<g>
			<path fill="#FF0000" d="M39.032,10.405c-0.458-1.715-1.809-3.066-3.524-3.524c-3.109-0.833-15.575-0.833-15.575-0.833
				s-12.466,0-15.575,0.833C2.642,7.339,1.291,8.69,0.833,10.405C0,13.514,0,20,0,20s0,6.486,0.833,9.595
				c0.458,1.715,1.809,3.066,3.524,3.524c3.109,0.833,15.575,0.833,15.575,0.833s12.466,0,15.575-0.833
				c1.715-0.458,3.066-1.809,3.524-3.524C39.865,26.486,39.865,20,39.865,20S39.865,13.514,39.032,10.405z"/>
			<polygon fill="#FFFFFF" points="15.946,25.98 26.303,20 15.946,14.02 			"/>
		</g>
		<g>
			<g>
				<path fill="#282828" d="M57.864,31.434c-0.789-0.532-1.35-1.359-1.682-2.48c-0.333-1.121-0.499-2.613-0.499-4.476v-2.537
					c0-1.882,0.19-3.393,0.57-4.533c0.38-1.14,0.974-1.971,1.782-2.494c0.808-0.522,1.867-0.784,3.179-0.784
					c1.292,0,2.328,0.266,3.107,0.798c0.779,0.532,1.349,1.364,1.71,2.494c0.361,1.131,0.542,2.637,0.542,4.519v2.537
					c0,1.863-0.176,3.36-0.527,4.49c-0.352,1.131-0.922,1.958-1.71,2.48c-0.789,0.522-1.858,0.784-3.207,0.784
					C59.741,32.232,58.653,31.966,57.864,31.434z M62.283,28.697c0.218-0.57,0.328-1.501,0.328-2.794v-5.445
					c0-1.254-0.11-2.171-0.328-2.751c-0.219-0.58-0.604-0.87-1.155-0.87c-0.532,0-0.908,0.29-1.126,0.87
					c-0.219,0.58-0.328,1.497-0.328,2.751v5.445c0,1.293,0.104,2.224,0.314,2.794c0.209,0.57,0.589,0.855,1.14,0.855
					C61.679,29.552,62.064,29.267,62.283,28.697z"/>
				<path fill="#282828" d="M118.415,24.519v0.884c0,1.122,0.033,1.963,0.1,2.523c0.066,0.561,0.204,0.969,0.413,1.226
					c0.209,0.257,0.532,0.385,0.969,0.385c0.589,0,0.993-0.228,1.212-0.684c0.218-0.456,0.337-1.216,0.356-2.281l3.393,0.2
					c0.019,0.152,0.029,0.361,0.029,0.627c0,1.616-0.442,2.822-1.326,3.621c-0.884,0.798-2.134,1.197-3.749,1.197
					c-1.938,0-3.298-0.608-4.077-1.825c-0.779-1.216-1.169-3.098-1.169-5.645v-3.051c0-2.623,0.404-4.537,1.212-5.744
					c0.808-1.207,2.19-1.81,4.148-1.81c1.349,0,2.385,0.247,3.107,0.741c0.722,0.494,1.23,1.264,1.525,2.309
					c0.295,1.045,0.442,2.49,0.442,4.333v2.993H118.415z M118.913,17.164c-0.199,0.247-0.333,0.651-0.399,1.212
					c-0.067,0.561-0.1,1.411-0.1,2.552v1.254h2.879v-1.254c0-1.121-0.038-1.972-0.114-2.552c-0.076-0.579-0.214-0.988-0.413-1.226
					c-0.2-0.237-0.509-0.356-0.927-0.356C119.422,16.794,119.113,16.918,118.913,17.164z"/>
				<path fill="#282828" d="M48.284,24.192L43.808,8.028h3.906l1.568,7.327c0.399,1.806,0.694,3.345,0.884,4.618h0.114
					c0.133-0.912,0.428-2.442,0.884-4.59l1.625-7.355h3.906l-4.533,16.164v7.755h-3.877V24.192z"/>
				<path fill="#282828" d="M79.276,14.471v17.476h-3.079l-0.342-2.138H75.77c-0.837,1.616-2.091,2.423-3.763,2.423
					c-1.16,0-2.015-0.38-2.566-1.14c-0.551-0.76-0.827-1.948-0.827-3.564V14.471h3.934V27.3c0,0.779,0.086,1.335,0.257,1.668
					c0.171,0.333,0.456,0.499,0.855,0.499c0.342,0,0.67-0.104,0.984-0.314c0.314-0.209,0.546-0.475,0.699-0.798V14.471H79.276z"/>
				<path fill="#282828" d="M99.456,14.471v17.476h-3.079l-0.342-2.138h-0.085c-0.837,1.616-2.091,2.423-3.763,2.423
					c-1.16,0-2.015-0.38-2.566-1.14c-0.551-0.76-0.827-1.948-0.827-3.564V14.471h3.934V27.3c0,0.779,0.086,1.335,0.257,1.668
					c0.171,0.333,0.456,0.499,0.855,0.499c0.342,0,0.67-0.104,0.984-0.314c0.314-0.209,0.546-0.475,0.699-0.798V14.471H99.456z"/>
				<path fill="#282828" d="M89.967,11.193h-3.906v20.754h-3.849V11.193h-3.906V8.028h11.66V11.193z"/>
				<path fill="#282828" d="M112.477,17.265c-0.238-1.102-0.623-1.9-1.155-2.395c-0.532-0.494-1.264-0.741-2.195-0.741
					c-0.722,0-1.397,0.204-2.024,0.613c-0.627,0.409-1.112,0.946-1.454,1.611h-0.029l0-9.208h-3.792v24.802h3.25l0.399-1.653h0.086
					c0.304,0.589,0.76,1.055,1.368,1.397c0.608,0.342,1.283,0.513,2.024,0.513c1.33,0,2.309-0.613,2.936-1.839
					c0.627-1.226,0.941-3.14,0.941-5.744v-2.765C112.833,19.898,112.714,18.368,112.477,17.265z M108.87,24.393
					c0,1.274-0.053,2.271-0.157,2.993c-0.105,0.723-0.281,1.236-0.527,1.54c-0.247,0.304-0.58,0.456-0.998,0.456
					c-0.323,0-0.623-0.076-0.898-0.228c-0.276-0.152-0.499-0.38-0.67-0.684v-9.921c0.133-0.475,0.361-0.865,0.684-1.169
					c0.323-0.304,0.674-0.456,1.055-0.456c0.399,0,0.708,0.157,0.927,0.47c0.218,0.314,0.371,0.841,0.456,1.582
					c0.086,0.741,0.128,1.796,0.128,3.164V24.393z"/>
			</g>
		</g>
	</g>
</g>
</svg>
